solid squareCylinder
 facet normal 0 0 -1
  outer loop
   vertex 1.25 -0.25 0
   vertex 0.75 -0.25 0
   vertex 1.25 0.25 0
  endloop
 endfacet
 facet normal -0 0 -1
  outer loop
   vertex 1.25 0.25 0
   vertex 0.75 -0.25 0
   vertex 0.75 0.25 0
  endloop
 endfacet
 facet normal 0 0 1
  outer loop
   vertex 1.25 0.25 0.01
   vertex 0.75 -0.25 0.01
   vertex 1.25 -0.25 0.01
  endloop
 endfacet
 facet normal -0 0 1
  outer loop
   vertex 0.75 0.25 0.01
   vertex 0.75 -0.25 0.01
   vertex 1.25 0.25 0.01
  endloop
 endfacet
 facet normal 0 -1 -0
  outer loop
   vertex 1.25 -0.25 0.01
   vertex 0.75 -0.25 0
   vertex 1.25 -0.25 0
  endloop
 endfacet
 facet normal 0 -1 0
  outer loop
   vertex 0.75 -0.25 0.01
   vertex 0.75 -0.25 0
   vertex 1.25 -0.25 0.01
  endloop
 endfacet
 facet normal 0 1 -0
  outer loop
   vertex 1.25 0.25 0
   vertex 0.75 0.25 0
   vertex 1.25 0.25 0.01
  endloop
 endfacet
 facet normal 0 1 0
  outer loop
   vertex 1.25 0.25 0.01
   vertex 0.75 0.25 0
   vertex 0.75 0.25 0.01
  endloop
 endfacet
 facet normal -1 0 0
  outer loop
   vertex 0.75 -0.25 0
   vertex 0.75 0.25 0.01
   vertex 0.75 0.25 0
  endloop
 endfacet
 facet normal -1 0 0
  outer loop
   vertex 0.75 -0.25 0
   vertex 0.75 -0.25 0.01
   vertex 0.75 0.25 0.01
  endloop
 endfacet
 facet normal 1 0 0
  outer loop
   vertex 1.25 -0.25 0
   vertex 1.25 0.25 0
   vertex 1.25 0.25 0.01
  endloop
 endfacet
 facet normal 1 0 0
  outer loop
   vertex 1.25 -0.25 0
   vertex 1.25 0.25 0.01
   vertex 1.25 -0.25 0.01
  endloop
 endfacet
endsolid squareCylinder
